<svg version="1" xmlns="http://www.w3.org/2000/svg" width="668" height="668" viewBox="0 0 501.000000 501.000000"><path d="M123.5 1c68.2.3 119.6.6 114.3.8-33.4.8-72.6 11.5-102.2 27.9-50.1 27.7-92.1 73.6-113 123.5-13.5 32.2-18.9 60.4-18.9 98.3 0 23.7 1.6 39.7 5.7 56.7l2.2 9.3.7-12.5c1.8-34 14.6-59.9 36.7-75 7.9-5.4 12.7-7.6 22.7-10.7 7.9-2.4 10.4-2.6 24.3-2.7 14.2 0 16.1.2 23.5 2.7 10.3 3.5 16.9 7.3 24.4 14.3l6.1 5.6V149l2.5-1.6c4-2.6 16.5-5.4 24.5-5.4 25.4 0 40.2 14.2 44 42.3.6 5 1 42.1 1 102.1 0 102.2.1 100.1-5.4 108.3-5.8 8.5-13.3 11.3-29.9 11.3-13.4-.1-19.8-1.6-25.5-6-3.9-3.1-8.9-12.6-9.8-18.6l-.6-4.5-2.8 4.8c-4.3 7.3-9.4 12.7-16.8 17.7-8.9 5.9-15.8 8.4-26.9 9.8-15.9 2.1-35.9-2-48.9-9.8-3-1.8-5.4-3-5.4-2.7 0 1.5 15.9 19.9 25.8 29.9 31.2 31.5 68.2 53.1 109.3 63.8 40.2 10.4 82.6 11.1 123.4 2 42.7-9.5 82.8-32 116.4-65.3C468.4 384 491.7 334.2 497 273c3.3-38.7-2.5-80.1-16.2-114.4-18.4-46.3-53.8-89.4-97.1-118.2-33.2-22.2-73.1-35.5-113.9-38.1-7.4-.5 35.6-1 109.7-1.3 79.7-.3 35-.5-129-.5C81.9.5 40.2.7 123.5 1zm237 217.4c26.5 6.7 48 23.7 59.4 47.1 9.1 18.6 12.4 47.3 6.6 58.4-3.3 6.5-1.7 6.3-67.7 6.9l-59.8.5.6 2.1c1.4 4.6 6 11.9 9.3 14.8 14.6 12.8 43.4 14 61.5 2.4 5.1-3.2 14.6-12.9 14.6-14.8 0-1.7 9 .1 15.5 3.1 7.9 3.7 11.5 6.8 15 13.3 2.6 4.6 2.9 6.4 3 13.3 0 6.9-.4 8.8-2.8 13.4-10 19-38.8 30.1-77.9 30.1-33 0-59.6-9.5-77.8-27.9-11.3-11.4-18.7-25-22.6-41.9-2-8.7-3.2-28.6-2.2-38.2 4.7-44.6 36.9-77.9 82.3-85 10.5-1.6 31.7-.4 43 2.4z"/><path d="M323 263.5c-10.5 2.9-19.3 11-23.3 21.3-3.5 8.9-6.1 8.2 31.4 8.2h33.2l-.7-4.6c-1.3-10.1-7.3-18.6-15.9-22.8-6.8-3.3-17.1-4.2-24.7-2.1zM107.7 273c-12.6 3.2-21.3 11.9-25.2 25.4-2.4 8.2-1.7 24.8 1.4 32.7 2.4 6.4 8.6 13.9 14.3 17.5 13.2 8.3 32.2 6.1 43.3-5 7.6-7.6 8.5-11.1 8.5-33.1v-18.1l-2.9-4.5c-6.5-10-14.9-14.8-27.3-15.4-4.6-.2-10 0-12.1.5z"/></svg>