<?xml version="1.0" encoding="UTF-8" standalone="no"?>
<svg
   xmlns:dc="http://purl.org/dc/elements/1.1/"
   xmlns:cc="http://creativecommons.org/ns#"
   xmlns:rdf="http://www.w3.org/1999/02/22-rdf-syntax-ns#"
   xmlns:svg="http://www.w3.org/2000/svg"
   xmlns="http://www.w3.org/2000/svg"
   viewBox="0 0 183.13333 616.45331"
   height="616.45331"
   width="183.13333"
   xml:space="preserve"
   id="svg2"
   version="1.1"><metadata
     id="metadata8"><rdf:RDF><cc:Work
         rdf:about=""><dc:format>image/svg+xml</dc:format><dc:type
           rdf:resource="http://purl.org/dc/dcmitype/StillImage" /></cc:Work></rdf:RDF></metadata><defs
     id="defs6" /><g
     transform="matrix(1.3333333,0,0,-1.3333333,0,616.45333)"
     id="g10"><g
       transform="scale(0.1)"
       id="g12"><path
         id="path14"
         style="fill:#72c9f1;fill-opacity:1;fill-rule:nonzero;stroke:none"
         d="m 109.082,1175.78 c 0,70.78 33.328,110.78 82.488,128.26 -46.648,29.13 -82.488,66.61 -82.488,135.73 0,105.78 70.813,141.61 158.273,141.61 h 189.903 c 57.476,0 77.461,-29.17 77.461,-69.99 v -16.68 c 0,-43.27 -18.324,-73.25 -77.461,-73.25 H 296.516 c -38.325,0 -57.485,-16.65 -57.485,-49.15 0,-23.33 12.485,-43.32 29.985,-54.96 h 188.242 c 58.262,0 77.461,-29.15 77.461,-70.79 v -15.82 c 0,-43.3 -18.324,-73.28 -77.461,-73.28 H 297.313 c -39.122,0 -58.282,-16.7 -58.282,-49.18 0,-23.28 12.485,-43.27 29.985,-54.97 h 188.242 c 58.262,0 77.461,-29.97 77.461,-70.779 v -16.66 c 0,-42.473 -18.324,-72.441 -77.461,-72.441 H 131.602 c -5.832,0 -18.321,29.148 -18.321,61.648 0,36.621 14.989,76.582 70.774,91.582 -43.301,28.32 -74.973,65.8 -74.973,129.12" /><path
         id="path16"
         style="fill:#72c9f1;fill-opacity:1;fill-rule:nonzero;stroke:none"
         d="m 284.016,1922.76 c -42.485,-1.66 -70.793,-28.31 -70.793,-72.48 0,-41.61 29.968,-74.11 70.793,-79.09 z m 147.422,-53.29 c 0,49.13 -24.172,84.13 -52.461,99.97 -1.711,0 5.808,73.28 66.597,73.28 54.992,0 96.621,-64.18 96.621,-180.75 0,-141.62 -79.937,-229.87 -213.242,-229.87 -126.551,0 -219.871,91.58 -219.871,219.86 0,126.58 86.633,214.89 205.731,214.89 h 9.992 c 24.172,-0.81 41.66,-8.31 41.66,-32.5 v -260.68 c 43.301,10.02 64.973,44.98 64.973,95.8" /><path
         id="path18"
         style="fill:#72c9f1;fill-opacity:1;fill-rule:nonzero;stroke:none"
         d="m 284.016,2391.64 c -42.485,-1.72 -70.793,-28.32 -70.793,-72.51 0,-41.66 29.968,-74.09 70.793,-79.1 z m 147.422,-53.32 c 0,49.14 -24.172,84.08 -52.461,99.96 -1.711,0 5.808,73.25 66.597,73.25 54.992,0 96.621,-64.1 96.621,-180.71 0,-141.6 -79.937,-229.86 -213.242,-229.86 -126.551,0 -219.871,91.58 -219.871,219.84 0,126.63 86.633,214.93 205.731,214.93 h 9.992 c 24.172,-0.87 41.66,-8.34 41.66,-32.52 v -260.69 c 43.301,10.03 64.973,44.98 64.973,95.8" /><path
         id="path20"
         style="fill:#72c9f1;fill-opacity:1;fill-rule:nonzero;stroke:none"
         d="m 238.215,2623.93 c 0,-42.47 -19.199,-64.96 -54.16,-64.96 h -9.121 c -37.524,0 -57.5,21.65 -57.5,64.96 v 9.16 H 77.4531 c -50.8008,0 -77.4413812,25.82 -77.4413812,71.66 v 13.26 c 0,42.51 18.3085812,71.65 77.4413812,71.65 h 39.9809 v 47.47 c 0,42.53 18.32,62.5 54.976,62.5 h 8.332 c 37.473,0 57.473,-21.7 57.473,-64.14 v -49.14 h 138.203 c 27.5,0 41.68,10.81 41.68,34.97 0,21.65 -10.832,35.01 -24.985,45.83 -4.16,2.48 18.325,34.96 58.325,34.96 53.281,0 90.757,-48.32 90.757,-124.14 0,-98.23 -50,-144.88 -148.242,-144.88 H 238.215 v -9.16" /><path
         id="path22"
         style="fill:#72c9f1;fill-opacity:1;fill-rule:nonzero;stroke:none"
         d="m 445.574,2927.9 c -35,0 -64.129,37.43 -61.636,39.95 26.636,29.19 48.32,76.61 48.32,132.44 0,33.3 -4.145,50.79 -20.82,50.79 -19.985,0 -21.665,-26.61 -29.993,-66.61 -11.66,-51.64 -30.808,-146.58 -131.582,-146.58 -84.968,0 -139.914,71.61 -139.914,182.39 0,119.1 35.821,176.55 94.121,176.55 37.461,0 66.606,-40.76 64.082,-44.1 -29.937,-30.01 -50.797,-76.67 -50.797,-119.93 0,-30.84 5.028,-49.19 22.516,-49.19 19.145,0 19.145,29.18 29.145,71.66 11.66,52.5 32.5,151.57 130.73,151.57 87.5,0 139.094,-71.61 139.094,-194.05 0,-128.25 -34.973,-184.89 -93.266,-184.89" /><path
         id="path24"
         style="fill:#ce7329;fill-opacity:1;fill-rule:nonzero;stroke:none"
         d="m 569.211,522.98 c 0,194.481 146.144,265.34 305.969,265.34 h 324.02 c 103.99,0 140.2,-52.789 140.2,-128.101 v -28.68 c 0,-78.367 -33.15,-132.629 -140.2,-132.629 H 921.879 c -73.867,0 -117.559,-36.16 -117.559,-94.961 0,-73.867 45.215,-114.59 122.11,-114.59 h 272.77 c 105.51,0 140.2,-54.238 140.2,-128.148 V 131.172 C 1339.4,54.2305 1306.25,0 1199.2,0 H 303.953 c -10.555,0 -33.164,52.7891 -33.164,111.539 0,82.93 43.684,177.82 220.063,177.82 h 212.453 c -76.801,45.25 -134.094,117.59 -134.094,233.621" /><path
         id="path26"
         style="fill:#ce7329;fill-opacity:1;fill-rule:nonzero;stroke:none"
         d="m 1042.47,1366.95 h -25.65 v -36.15 c 3.01,-116.05 27.13,-177.84 84.43,-177.84 43.74,0 69.32,34.68 69.32,87.42 0,76.83 -52.73,126.57 -128.1,126.57 z M 775.648,1249.38 c 0,-93.42 54.336,-131.08 98.008,-150.71 4.512,-1.44 16.582,-191.42 -113.047,-191.42 -117.586,0 -191.398,111.62 -191.398,358.75 0,268.3 103.996,385.83 318.019,385.83 h 425.06 c 15.04,0 33.18,-55.75 33.18,-111.49 0,-82.91 -42.28,-140.2 -122.14,-162.86 78.41,-48.18 123.59,-140.13 123.59,-250.17 0,-150.669 -90.45,-248.689 -220.06,-248.689 -170.294,0 -251.68,140.249 -253.204,456.709 v 30.19 c -64.824,-6.1 -98.008,-45.25 -98.008,-116.14" /><path
         id="path28"
         style="fill:#ce7329;fill-opacity:1;fill-rule:nonzero;stroke:none"
         d="m 1352.95,2036.11 c 0,-194.43 -141.71,-265.29 -295.43,-265.29 H 716.879 c -105.441,0 -140.16,52.8 -140.16,128.11 v 28.67 c 0,78.38 31.687,132.58 140.16,132.58 h 289.411 c 67.86,0 110.02,36.23 110.02,98.01 0,48.26 -24.12,88.9 -58.79,111.54 H 716.879 c -105.441,0 -140.16,52.77 -140.16,128.13 v 30.11 c 0,76.89 31.687,131.13 140.16,131.13 h 589.371 c 9.01,0 33.15,-52.78 33.15,-111.57 0,-64.76 -27.11,-138.58 -126.62,-165.78 79.84,-52.73 140.17,-125.07 140.17,-245.64" /><path
         id="path30"
         style="fill:#ce7329;fill-opacity:1;fill-rule:nonzero;stroke:none"
         d="m 1178.13,2644.9 c -63.32,0 -116.11,67.83 -111.52,72.39 48.2,52.78 87.4,138.68 87.4,239.66 0,60.29 -7.52,91.93 -37.7,91.93 -36.17,0 -39.2,-48.21 -54.29,-120.59 -21.06,-93.4 -55.73,-265.25 -238.09,-265.25 -153.77,0 -253.2,129.64 -253.2,330.08 0,215.57 64.817,319.55 170.27,319.55 67.832,0 120.586,-73.91 116.094,-79.88 -54.297,-54.29 -91.953,-138.74 -91.953,-217.08 0,-55.77 9.043,-88.92 40.703,-88.92 34.648,0 34.648,52.73 52.773,129.61 21.074,94.94 58.75,274.29 236.603,274.29 158.26,0 251.7,-129.57 251.7,-351.17 0,-232.12 -63.28,-334.62 -168.79,-334.62" /><path
         id="path32"
         style="fill:#ce7329;fill-opacity:1;fill-rule:nonzero;stroke:none"
         d="m 958.246,3971.29 c -46.504,-0.18 -82.598,-33.77 -88.047,-79.33 l 169.161,0.57 c -2.03,47.41 -31.84,78.91 -81.114,78.76" /><path
         id="path34"
         style="fill:#ce7329;fill-opacity:1;fill-rule:nonzero;stroke:none"
         d="m 504.762,3822 -0.254,71.53 c -15,33.42 -43.887,53.79 -83.828,53.66 -55.762,-0.2 -92.813,-39.37 -92.578,-103.49 0.195,-61.36 37.48,-103.06 91.425,-102.87 48.301,0.18 85.391,30.97 85.235,81.17" /><path
         id="path36"
         style="fill:#ce7329;fill-opacity:1;fill-rule:nonzero;stroke:none"
         d="M 1164.2,3800.97 873.324,3800 c 11.328,-48.34 50.41,-72.35 107.09,-72.15 54.826,0.14 93.806,27.21 111.386,58.94 0,1.8 81.78,-6.26 81.99,-74.12 0.24,-61.31 -71.19,-108.03 -201.306,-108.47 -158.007,-0.55 -256.796,88.37 -257.285,237.05 -0.449,141.27 101.367,245.7 244.531,246.17 141.23,0.5 240.1,-95.81 240.53,-228.76 l 0.04,-11.1 c -0.86,-27 -9.12,-46.51 -36.1,-46.59 z m 39.36,626.66 C 1086.14,4553.72 941.625,4618.29 769.594,4623.18 597.984,4627.5 450.52,4569.47 326.73,4449.65 202.961,4330.41 139.102,4185.07 134.734,4012.96 c -1.769,-70.32 6.887,-136.62 25.618,-199 -0.879,9.8 -1.399,19.83 -1.43,30.11 -0.469,147.8 82.851,240.98 211.094,241.41 57.617,0.2 106.074,-24.75 133.144,-61.84 l -0.762,225.83 c 0,6.54 32.415,20.56 68.649,20.71 51.125,0.17 109.758,-26.59 110.07,-135.32 l 1.465,-436.8 c 0.234,-64.18 -32.184,-86.56 -77.703,-86.71 l -18.59,-0.06 c -45.543,-0.17 -77.172,18.33 -81.078,76.85 -23.086,-52.1 -72.207,-85.76 -135.43,-85.94 -49.484,-0.17 -92.422,14.98 -126.441,42.01 18.16,-25.71 38.531,-50.55 61.238,-74.46 117.61,-123.53 262.055,-187.1 433.668,-191.76 171.836,-4.32 319.434,52.19 443.144,169.78 123.71,117.3 187.52,262.31 191.88,433.84 4.33,171.79 -52.03,320.41 -169.71,446.02" /></g></g></svg>