<?xml version="1.0" encoding="UTF-8" standalone="no"?>
<svg
   xmlns:dc="http://purl.org/dc/elements/1.1/"
   xmlns:cc="http://creativecommons.org/ns#"
   xmlns:rdf="http://www.w3.org/1999/02/22-rdf-syntax-ns#"
   xmlns:svg="http://www.w3.org/2000/svg"
   xmlns="http://www.w3.org/2000/svg"
   viewBox="0 0 616.45331 183.13333"
   height="183.13333"
   width="616.45331"
   xml:space="preserve"
   id="svg2"
   version="1.1"><metadata
     id="metadata8"><rdf:RDF><cc:Work
         rdf:about=""><dc:format>image/svg+xml</dc:format><dc:type
           rdf:resource="http://purl.org/dc/dcmitype/StillImage" /></cc:Work></rdf:RDF></metadata><defs
     id="defs6" /><g
     transform="matrix(1.3333333,0,0,-1.3333333,0,183.13333)"
     id="g10"><g
       transform="scale(0.1)"
       id="g12"><path
         id="path14"
         style="fill:#72c9f1;fill-opacity:1;fill-rule:nonzero;stroke:none"
         d="m 1175.79,1264.45 c 70.78,0 110.77,-33.33 128.26,-82.49 29.12,46.65 66.6,82.49 135.72,82.49 105.78,0 141.61,-70.81 141.61,-158.27 V 916.277 c 0,-57.484 -29.17,-77.453 -69.98,-77.453 h -16.68 c -43.28,0 -73.26,18.321 -73.26,77.453 v 160.753 c 0,38.31 -16.66,57.47 -49.16,57.47 -23.32,0 -43.31,-12.48 -54.96,-29.98 V 916.277 c 0,-58.261 -29.14,-77.453 -70.77,-77.453 h -15.82 c -43.31,0 -73.29,18.321 -73.29,77.453 v 159.943 c 0,39.12 -16.69,58.28 -49.17,58.28 -23.29,0 -43.28,-12.48 -54.97,-29.98 V 916.277 c 0,-58.261 -29.98,-77.453 -70.785,-77.453 h -16.66 c -42.469,0 -72.441,18.321 -72.441,77.453 v 325.653 c 0,5.84 29.144,18.32 61.648,18.32 36.621,0 76.578,-14.99 91.588,-70.77 28.32,43.3 65.79,74.97 129.12,74.97" /><path
         id="path16"
         style="fill:#72c9f1;fill-opacity:1;fill-rule:nonzero;stroke:none"
         d="m 1922.76,1089.52 c -1.66,42.48 -28.3,70.79 -72.47,70.79 -41.62,0 -74.11,-29.97 -79.09,-70.79 z m -53.28,-147.422 c 49.12,0 84.12,24.172 99.95,52.468 0,1.704 73.29,-5.816 73.29,-66.613 0,-54.984 -64.18,-96.609 -180.75,-96.609 -141.61,0 -229.87,79.941 -229.87,213.226 0,126.56 91.59,219.88 219.87,219.88 126.57,0 214.88,-86.62 214.88,-205.73 v -9.99 c -0.81,-24.18 -8.31,-41.66 -32.5,-41.66 h -260.67 c 10.01,-43.3 44.98,-64.972 95.8,-64.972" /><path
         id="path18"
         style="fill:#72c9f1;fill-opacity:1;fill-rule:nonzero;stroke:none"
         d="m 2391.65,1089.52 c -1.72,42.48 -28.32,70.79 -72.51,70.79 -41.66,0 -74.1,-29.97 -79.11,-70.79 z m -53.32,-147.422 c 49.14,0 84.08,24.172 99.96,52.468 0,1.704 73.25,-5.816 73.25,-66.613 0,-54.984 -64.1,-96.609 -180.71,-96.609 -141.6,0 -229.87,79.941 -229.87,213.226 0,126.56 91.58,219.88 219.85,219.88 126.63,0 214.93,-86.62 214.93,-205.73 v -9.99 c -0.88,-24.18 -8.34,-41.66 -32.52,-41.66 h -260.7 c 10.03,-43.3 44.98,-64.972 95.81,-64.972" /><path
         id="path20"
         style="fill:#72c9f1;fill-opacity:1;fill-rule:nonzero;stroke:none"
         d="m 2623.93,1135.33 c -42.47,0 -64.96,19.19 -64.96,54.15 v 9.13 c 0,37.51 21.65,57.49 64.96,57.49 h 9.16 v 39.98 c 0,50.8 25.82,77.44 71.66,77.44 h 13.26 c 42.51,0 71.65,-18.31 71.65,-77.44 v -39.98 h 47.47 c 42.53,0 62.5,-18.32 62.5,-54.97 v -8.34 c 0,-37.46 -21.7,-57.46 -64.14,-57.46 h -49.14 V 997.113 c 0,-27.496 10.81,-41.679 34.97,-41.679 21.65,0 35.01,10.836 45.83,24.98 2.48,4.172 34.96,-18.316 34.96,-58.32 0,-53.281 -48.32,-90.75 -124.14,-90.75 -98.23,0 -144.88,50 -144.88,148.23 v 155.756 h -9.16" /><path
         id="path22"
         style="fill:#72c9f1;fill-opacity:1;fill-rule:nonzero;stroke:none"
         d="m 2927.91,927.953 c 0,35 37.43,64.137 39.95,61.641 29.19,-26.641 76.61,-48.321 132.44,-48.321 33.29,0 50.78,4.145 50.78,20.825 0,19.976 -26.6,21.668 -66.6,29.992 -51.64,11.66 -146.58,30.8 -146.58,131.58 0,84.97 71.61,139.91 182.39,139.91 119.09,0 176.54,-35.82 176.54,-94.12 0,-37.46 -40.76,-66.6 -44.1,-64.08 -30.01,29.95 -76.67,50.8 -119.92,50.8 -30.84,0 -49.19,-5.03 -49.19,-22.52 0,-19.13 29.18,-19.13 71.65,-29.14 52.5,-11.66 151.57,-32.49 151.57,-130.731 0,-87.5 -71.61,-139.098 -194.04,-139.098 -128.25,0 -184.89,34.977 -184.89,93.262" /><path
         id="path24"
         style="fill:#ce7329;fill-opacity:1;fill-rule:nonzero;stroke:none"
         d="m 522.984,804.32 c 194.477,0 265.344,-146.172 265.344,-305.988 V 174.301 C 788.328,70.3203 735.535,34.1016 660.215,34.1016 h -28.672 c -78.379,0 -132.637,33.1601 -132.637,140.1994 v 277.328 c 0,73.871 -36.156,117.551 -94.957,117.551 -73.859,0 -114.59,-45.207 -114.59,-122.098 V 174.301 C 289.359,68.8008 235.129,34.1016 161.223,34.1016 H 131.184 C 54.2344,34.1016 0,67.2617 0,174.301 v 895.269 c 0,10.57 52.793,33.17 111.555,33.17 82.918,0 177.804,-43.68 177.804,-220.06 V 670.199 c 45.258,76.828 117.594,134.121 233.625,134.121" /><path
         id="path26"
         style="fill:#ce7329;fill-opacity:1;fill-rule:nonzero;stroke:none"
         d="m 1366.95,331.031 v 25.66 h -36.14 c -116.05,-3.019 -177.85,-27.132 -177.85,-84.429 0,-43.742 34.68,-69.321 87.43,-69.321 76.83,0 126.56,52.731 126.56,128.09 z m -117.57,266.821 c -93.41,0 -131.08,-54.336 -150.71,-98.008 -1.43,-4.512 -191.412,-16.582 -191.412,113.047 0,117.613 111.612,191.429 358.752,191.429 268.29,0 385.82,-104.011 385.82,-318.043 V 61.2188 c 0,-15.0469 -55.75,-33.1797 -111.48,-33.1797 -82.91,0 -140.21,42.2812 -162.86,122.1409 C 1329.3,71.7617 1237.34,26.582 1127.3,26.582 c -150.652,0 -248.671,90.457 -248.671,220.066 0,170.286 140.241,251.684 456.711,253.196 h 30.18 c -6.1,64.832 -45.25,98.008 -116.14,98.008" /><path
         id="path28"
         style="fill:#ce7329;fill-opacity:1;fill-rule:nonzero;stroke:none"
         d="m 2036.11,20.5586 c -194.43,0 -265.29,141.7114 -265.29,295.4294 v 340.649 c 0,105.468 52.81,140.179 128.11,140.179 h 28.67 c 78.38,0 132.59,-31.683 132.59,-140.179 V 367.211 c 0,-67.852 36.22,-110.02 97.99,-110.02 48.28,0 88.91,24.129 111.55,58.797 v 340.649 c 0,105.468 52.77,140.179 128.14,140.179 h 30.1 c 76.89,0 131.14,-31.683 131.14,-140.179 V 67.2617 c 0,-9.0117 -52.79,-33.1601 -111.58,-33.1601 -64.76,0 -138.58,27.1172 -165.78,126.6284 C 2229.02,80.8789 2156.69,20.5586 2036.11,20.5586" /><path
         id="path30"
         style="fill:#ce7329;fill-opacity:1;fill-rule:nonzero;stroke:none"
         d="m 2644.91,195.371 c 0,63.328 67.82,116.109 72.38,111.527 52.78,-48.199 138.68,-87.398 239.67,-87.398 60.28,0 91.92,7.512 91.92,37.691 0,36.18 -48.21,39.2 -120.58,54.289 -93.4,21.071 -265.26,55.731 -265.26,238.102 0,153.773 129.64,253.227 330.08,253.227 215.58,0 319.55,-64.836 319.55,-170.305 0,-67.828 -73.91,-120.582 -79.87,-116.098 -54.3,54.297 -138.74,91.961 -217.08,91.961 -55.77,0 -88.93,-9.051 -88.93,-40.699 0,-34.652 52.74,-34.652 129.61,-52.777 94.94,-21.075 274.29,-58.758 274.29,-236.61 0,-158.25 -129.56,-251.699 -351.16,-251.699 -232.12,0 -334.62,63.2891 -334.62,168.789" /><path
         id="path32"
         style="fill:#ce7329;fill-opacity:1;fill-rule:nonzero;stroke:none"
         d="m 3680.98,832.488 c 0.19,-46.492 33.77,-82.59 79.33,-88.039 l -0.57,169.153 c -47.41,-2.024 -78.91,-31.836 -78.76,-81.114" /><path
         id="path34"
         style="fill:#ce7329;fill-opacity:1;fill-rule:nonzero;stroke:none"
         d="m 3911.44,293.68 c -0.18,48.3 -30.97,85.39 -81.17,85.238 l -71.52,-0.266 c -33.42,-15.004 -53.79,-43.882 -53.67,-83.832 0.2,-55.761 39.37,-92.8 103.49,-92.57 61.37,0.199 103.06,37.48 102.87,91.43" /><path
         id="path36"
         style="fill:#ce7329;fill-opacity:1;fill-rule:nonzero;stroke:none"
         d="m 3811.02,589.422 c -141.27,-0.449 -245.69,101.371 -246.17,244.547 -0.5,141.234 95.81,240.101 228.76,240.531 l 11.1,0.04 c 27,-0.86 46.51,-9.11 46.59,-36.09 l 0.97,-290.876 c 48.34,11.317 72.35,50.403 72.15,107.094 -0.14,54.812 -27.21,93.793 -58.94,111.375 -1.79,0 6.26,81.787 74.12,81.997 61.31,0.23 108.03,-71.185 108.47,-201.306 0.55,-158.027 -88.37,-256.824 -237.05,-257.312 z m 638.63,457.388 c -119.23,123.77 -264.58,187.62 -436.69,191.98 -171.42,4.32 -319.42,-52.28 -443.21,-169.83 -123.52,-117.612 -187.1,-262.058 -191.76,-433.698 -1.27,-50.586 2.88,-99.012 12.16,-145.41 14.22,35.527 49.97,65.265 127.26,65.488 l 436.8,1.465 c 64.18,0.238 86.57,-32.196 86.71,-77.735 l 0.06,-18.601 c 0.17,-45.567 -18.33,-77.207 -76.84,-81.114 52.1,-23.074 85.75,-72.207 85.93,-135.414 0.44,-126.39 -98.73,-210.3902 -241.87,-210.8629 -6.15,-0.0195 -12.07,0.3203 -18.04,0.5821 59.62,-20.461 123.42,-31.69926 191.46,-33.429731 171.78,-4.332029 320.41,52.039031 446.01,169.718531 126.1,117.422 190.67,261.934 195.55,433.969 4.32,171.645 -53.7,319.098 -173.53,442.892" /><path
         id="path38"
         style="fill:#ce7329;fill-opacity:1;fill-rule:nonzero;stroke:none"
         d="m 3566.79,244.16 c -0.19,57.621 24.75,106.07 61.84,133.145 l -203.61,-0.684 c 28.26,-66.48 69.06,-128.019 122.76,-184.512 11.77,-12.41 23.89,-24.039 36.21,-35.25 -11.15,25.871 -17.09,55.172 -17.2,87.301" /></g></g></svg>