<?xml version="1.0" standalone="no"?>
<!DOCTYPE svg PUBLIC "-//W3C//DTD SVG 20010904//EN"
 "http://www.w3.org/TR/2001/REC-SVG-20010904/DTD/svg10.dtd">
<svg version="1.0" xmlns="http://www.w3.org/2000/svg"
 width="501.000000pt" height="501.000000pt" viewBox="0 0 501.000000 501.000000"
 preserveAspectRatio="xMidYMid meet">
<metadata>
Created by potrace 1.11, written by Peter Selinger 2001-2013
</metadata>
<g transform="translate(0.000000,501.000000) scale(0.100000,-0.100000)"
fill="#000000" stroke="none">
<path d="M1235 5000 c682 -3 1196 -6 1143 -8 -334 -8 -726 -115 -1022 -279
-501 -277 -921 -736 -1130 -1235 -135 -322 -189 -604 -189 -983 0 -237 16
-397 57 -567 l22 -93 7 125 c18 340 146 599 367 750 79 54 127 76 227 107 79
24 104 26 243 27 142 0 161 -2 235 -27 103 -35 169 -73 244 -143 l61 -56 0
451 0 451 25 16 c40 26 165 54 245 54 254 0 402 -142 440 -423 6 -50 10 -421
10 -1021 0 -1022 1 -1001 -54 -1083 -58 -85 -133 -113 -299 -113 -134 1 -198
16 -255 60 -39 31 -89 126 -98 186 l-6 45 -28 -48 c-43 -73 -94 -127 -168
-177 -89 -59 -158 -84 -269 -98 -159 -21 -359 20 -489 98 -30 18 -54 30 -54
27 0 -15 159 -199 258 -299 312 -315 682 -531 1093 -638 402 -104 826 -111
1234 -20 427 95 828 320 1164 653 435 431 668 929 721 1541 33 387 -25 801
-162 1144 -184 463 -538 894 -971 1182 -332 222 -731 355 -1139 381 -74 5 356
10 1097 13 797 3 350 5 -1290 5 -1686 0 -2103 -2 -1270 -5z m2370 -2174 c265
-67 480 -237 594 -471 91 -186 124 -473 66 -584 -33 -65 -17 -63 -677 -69
l-598 -5 6 -21 c14 -46 60 -119 93 -148 146 -128 434 -140 615 -24 51 32 146
129 146 148 0 17 90 -1 155 -31 79 -37 115 -68 150 -133 26 -46 29 -64 30
-133 0 -69 -4 -88 -28 -134 -100 -190 -388 -301 -779 -301 -330 0 -596 95
-778 279 -113 114 -187 250 -226 419 -20 87 -32 286 -22 382 47 446 369 779
823 850 105 16 317 4 430 -24z"/>
<path d="M3230 2375 c-105 -29 -193 -110 -233 -213 -35 -89 -61 -82 314 -82
l332 0 -7 46 c-13 101 -73 186 -159 228 -68 33 -171 42 -247 21z"/>
<path d="M1077 2280 c-126 -32 -213 -119 -252 -254 -24 -82 -17 -248 14 -327
24 -64 86 -139 143 -175 132 -83 322 -61 433 50 76 76 85 111 85 331 l0 181
-29 45 c-65 100 -149 148 -273 154 -46 2 -100 0 -121 -5z"/>
</g>
</svg>
